<svg id="Illustration" xmlns="http://www.w3.org/2000/svg" xmlns:xlink="http://www.w3.org/1999/xlink" width="511" height="173" viewBox="0 0 511 173">
  <defs>
    <clipPath id="clip-path">
      <rect id="Mask" width="511" height="173" fill="none"/>
    </clipPath>
  </defs>
  <rect id="Mask-2" data-name="Mask" width="511" height="173" fill="none"/>
  <g id="Illustration-2" data-name="Illustration" clip-path="url(#clip-path)">
    <path id="Shape_Copy" data-name="Shape Copy" d="M52,150.26A83.283,83.283,0,0,1,6.2,41.553,66.888,66.888,0,0,1,93.353,4.942a53.429,53.429,0,0,1,29.356,69.683A42.892,42.892,0,0,1,66.823,98.1,34.279,34.279,0,0,1,47.989,53.4,27.567,27.567,0,0,1,83.866,38.324a22.048,22.048,0,0,1,12.1,28.722A17.707,17.707,0,0,1,72.9,76.738a14.177,14.177,0,0,1-7.79-18.491A11.431,11.431,0,0,1,79.98,52a9.169,9.169,0,0,1,5.032,11.945,7.4,7.4,0,0,1-9.63,4.045,5.953,5.953,0,0,1-3.267-7.754A4.82,4.82,0,0,1,78.388,57.6a3.894,3.894,0,0,1,2.137,5.072A3.169,3.169,0,0,1,76.4,64.4a2.576,2.576,0,0,1-1.414-3.356,2.112,2.112,0,0,1,2.75-1.155,1.732,1.732,0,0,1,.95,2.257,1.436,1.436,0,0,1-1.869.786,1.193,1.193,0,0,1-.654-1.554,1,1,0,0,1,1.306-.549.848.848,0,0,1,.465,1.1.726.726,0,0,1-.946.4.626.626,0,0,1-.344-.816.547.547,0,0,1,.122-.184.539.539,0,0,0-.171.224.725.725,0,0,0,.4.945.968.968,0,0,0,1.26-.529,1.265,1.265,0,0,0-.695-1.648,1.644,1.644,0,0,0-2.139.9,2.108,2.108,0,0,0,1.157,2.747,2.7,2.7,0,0,0,3.515-1.476,3.426,3.426,0,0,0-1.88-4.463,4.351,4.351,0,0,0-5.663,2.379,5.478,5.478,0,0,0,3.01,7.145,6.931,6.931,0,0,0,9.02-3.789A8.7,8.7,0,0,0,79.8,52.43a10.961,10.961,0,0,0-14.265,5.992A13.711,13.711,0,0,0,73.072,76.3a17.238,17.238,0,0,0,22.46-9.436A21.58,21.58,0,0,0,83.689,38.757,27.1,27.1,0,0,0,48.423,53.572,33.812,33.812,0,0,0,67,97.669a42.424,42.424,0,0,0,55.276-23.221,52.962,52.962,0,0,0-29.1-69.073A66.494,66.494,0,0,0,6.637,41.729a82.978,82.978,0,0,0,45.54,108.1c53.03,21.594,113.766-3.921,135.391-56.876l.433.176a104.445,104.445,0,0,1-95.3,64.864c-.453.005-.907.009-1.361.009A103.823,103.823,0,0,1,52,150.26Z" transform="translate(6 116)" fill="#6b59cc" opacity="0.329"/>
    <g id="undraw_online_connection_6778" transform="translate(108 10)">
      <path id="Shape" d="M1.808,48A1.8,1.8,0,0,1,0,46.222V1.778A1.8,1.8,0,0,1,1.808,0H45.193A1.8,1.8,0,0,1,47,1.778V46.222A1.8,1.8,0,0,1,45.193,48Z" transform="translate(98 47)" fill="#eceef5"/>
      <path id="Path" d="M1.256,0C.563,0,0,.9,0,2S.563,4,1.256,4H26.744C27.437,4,28,3.1,28,2s-.563-2-1.256-2Z" transform="translate(107 56)" fill="#9698d6" opacity="0.8"/>
      <path id="Path-2" data-name="Path" d="M1.259,0C.809,0,.394.38.169,1a3.055,3.055,0,0,0,0,2c.225.619.641,1,1.09,1H26.744C27.438,4,28,3.1,28,2s-.562-2-1.256-2Z" transform="translate(107 62)" fill="#9698d6" opacity="0.8"/>
      <path id="Path-3" data-name="Path" d="M7.5,15A7.5,7.5,0,1,1,15,7.5,7.5,7.5,0,0,1,7.5,15Z" transform="translate(113 70)" fill="#f6933e"/>
      <path id="Path-4" data-name="Path" d="M23.863,2.123A63.174,63.174,0,0,1,67.17,9.555,80.146,80.146,0,0,1,79.428,18.62c3.893,3.387,7.659,6.924,11.723,10.112A65.987,65.987,0,0,0,132.014,43q1.841,0,3.679-.1c.664-.036.669-1.067,0-1.03A64.959,64.959,0,0,1,93.452,29.2c-4.212-3.126-8.059-6.7-11.985-10.165A92.614,92.614,0,0,0,69.431,9.712,63.979,63.979,0,0,0,0,10.781a4.531,4.531,0,0,1,.6.846A63.462,63.462,0,0,1,23.863,2.123Z" transform="translate(88.807 24)" fill="#eceef5"/>
      <circle id="Oval" cx="5" cy="5" r="5" transform="translate(80 33)" fill="#eceef5"/>
      <circle id="Oval-2" data-name="Oval" cx="5" cy="5" r="5" transform="translate(280 104)" fill="#eceef5"/>
      <path id="Shape-2" data-name="Shape" d="M1.813,48A1.8,1.8,0,0,1,0,46.209V1.791A1.8,1.8,0,0,1,1.813,0H88.187A1.8,1.8,0,0,1,90,1.791V46.209A1.8,1.8,0,0,1,88.187,48Z" transform="translate(224 29)" fill="#eceef5"/>
      <circle id="Oval-3" data-name="Oval" cx="7.5" cy="7.5" r="7.5" transform="translate(231 38)" fill="#f6933e"/>
      <path id="Path-5" data-name="Path" d="M1.208,0C.777,0,.378.38.162,1a3.175,3.175,0,0,0,0,2c.216.619.615,1,1.046,1H46.794C47.46,4,48,3.1,48,2s-.54-2-1.206-2Z" transform="translate(257 39)" fill="#9698d6" opacity="0.8"/>
      <path id="Path-6" data-name="Path" d="M1.259,0C.809,0,.394.38.169,1a3.055,3.055,0,0,0,0,2c.225.619.641,1,1.09,1H26.744C27.438,4,28,3.1,28,2s-.562-2-1.256-2Z" transform="translate(254 47)" fill="#9698d6" opacity="0.8"/>
      <path id="Path-7" data-name="Path" d="M1.676,0A1.862,1.862,0,0,0,0,2,1.862,1.862,0,0,0,1.676,4H69.324A1.862,1.862,0,0,0,71,2a1.862,1.862,0,0,0-1.676-2Z" transform="translate(231 58)" fill="#9698d6" opacity="0.8"/>
      <path id="Path-8" data-name="Path" d="M1.676,0A1.862,1.862,0,0,0,0,2,1.862,1.862,0,0,0,1.676,4H69.324A1.862,1.862,0,0,0,71,2a1.862,1.862,0,0,0-1.676-2Z" transform="translate(231 66)" fill="#9698d6" opacity="0.8"/>
      <path id="Path-9" data-name="Path" d="M16.206,4.642C18.65,5.711,21.068,6.851,23.6,7.694a41.084,41.084,0,0,0,6.516,1.591A44.7,44.7,0,0,0,43.5,9.37,45.694,45.694,0,0,0,56.416,5.5,43.389,43.389,0,0,0,64.045.927C63.682.34,63.687.367,63.493,0a42.213,42.213,0,0,1-6.3,3.924,44.731,44.731,0,0,1-12.671,4.2,43.439,43.439,0,0,1-13.353.238A40.967,40.967,0,0,1,24.63,6.892,67.935,67.935,0,0,1,17.414,4C12.625,1.884,7.3-.191,2.041,1.27a12.574,12.574,0,0,0-1.766.65c-.62.277-.084,1.212.531.936C5.841.606,11.461,2.568,16.206,4.642Z" transform="translate(217 111.167)" fill="#eceef5"/>
      <path id="Path-10" data-name="Path" d="M41,23H0L9.649,6.248a1.968,1.968,0,0,1,3.413,0L17.183,13.4,24.192,1.236a2.464,2.464,0,0,1,4.273,0Z" transform="translate(175 104)" fill="#f6933e"/>
      <path id="Shape-3" data-name="Shape" d="M1.808,28A1.815,1.815,0,0,1,0,26.181V1.819A1.815,1.815,0,0,1,1.808,0H45.193A1.815,1.815,0,0,1,47,1.819V26.181A1.815,1.815,0,0,1,45.193,28Z" transform="translate(170 99)" fill="#eceef5"/>
      <path id="Path-11" data-name="Path" d="M14.66,29.331,6.821,33.186c-2.8,1.376-5.5,1.141-6.532-1.728h0A4.879,4.879,0,0,1,.7,27.287a5.181,5.181,0,0,1,3.533-2.417l7.45-1.347L43.588,13.271,62.915,0,70,10.931,47.668,22.6Z" transform="translate(287 78)" fill="#ffb8b8"/>
      <path id="Path-12" data-name="Path" d="M5.143,13,0,11.946.572,0H6L5.143,13Z" transform="translate(333 225)" fill="#ffb8b8"/>
      <path id="Path-13" data-name="Path" d="M10,12.089,4.373,14,0,3.011,5.479,0,10,12.089Z" transform="translate(389 215)" fill="#ffb8b8"/>
      <path id="Path-14" data-name="Path" d="M66,107.092l-7.262,2.975L24.077,64.454,13.183,118l-7.262-1.322C1.263,70.514-2.536,23.427,2.125,1.157L29.028,0,41.242,39l5.942,26.443Z" transform="translate(328 108)" fill="#2f2e41"/>
      <path id="Path-15" data-name="Path" d="M14.74,13.882h0a5.466,5.466,0,0,1-3.341-.35L7.75,11.916C4.69,11.761,2.607,12.361.9,10.172A4.341,4.341,0,0,1,.382,5.74h0A4.49,4.49,0,0,1,4.053,3.11L9.065,0l.263,2.331c2.291,1.278,5.01.726,7.892-.518l1.573,5.421a5.237,5.237,0,0,1-.561,4.19A5.387,5.387,0,0,1,14.74,13.882Z" transform="translate(324 234)" fill="#2f2e41"/>
      <path id="Path-16" data-name="Path" d="M16.375,12.343h0a5.465,5.465,0,0,1-3.294.746l-4.007-.366c-2.962.841-4.744,2.089-7.091.546A4.429,4.429,0,0,1,.017,9.2h0a4.477,4.477,0,0,1,2.62-3.7L6.372.9,7.4,3.047C10,3.528,12.4,2.121,14.731,0l3.294,4.676a5.335,5.335,0,0,1-1.651,7.667Z" transform="translate(384 225)" fill="#2f2e41"/>
      <circle id="Oval-4" data-name="Oval" cx="12" cy="12" r="12" transform="translate(336 37)" fill="#ffb8b8"/>
      <path id="Path-17" data-name="Path" d="M18,19,2.037,15.607,0,2.375,11.207,0,18,19Z" transform="translate(343 56)" fill="#ffb8b8"/>
      <path id="Path-18" data-name="Path" d="M28.678,42H0L6.464,26.3c-.47-5.4,1.9-9.377,5.284-12.837l4.3-10.439C22.99-1.4,28.225-1.069,33.8,4.674,40.408,13.728,35.833,27.338,28.678,42Z" transform="translate(329 67)" fill="#f6933e"/>
      <path id="Path-19" data-name="Path" d="M9.751,57.423,8.96,66.247C8.677,69.4,7.046,71.572,4,70.867H4A5.163,5.163,0,0,1,.594,68.21,5.289,5.289,0,0,1,.36,63.856l2.766-7.1,7.95-32.909L9.751,0H23L21.344,25.521Z" transform="translate(334 85)" fill="#ffb8b8"/>
      <path id="Path-20" data-name="Path" d="M15,15H0L1.052,5.993A6.53,6.53,0,0,1,7.495.008h0a7.147,7.147,0,0,1,4.92,1.63A6.053,6.053,0,0,1,14.617,6Z" transform="translate(343 71)" fill="#f6933e"/>
      <circle id="Oval-5" data-name="Oval" cx="4.5" cy="4.5" r="4.5" transform="translate(357 28)" fill="#2f2e41"/>
      <path id="Path-21" data-name="Path" d="M.561,4.25A4.464,4.464,0,0,1,5,.041C4.908.03,4.817.015,4.724.009a4.463,4.463,0,0,0-4.715,4.2A4.482,4.482,0,0,0,4.154,9c.094.006.185,0,.278,0A4.483,4.483,0,0,1,.561,4.25Z" transform="translate(356 25)" fill="#2f2e41"/>
      <path id="Path-22" data-name="Path" d="M24.716,1.224c-3.844-3.309-14.87.9-15.582,3.122C3.936,5.081,0,8.229,0,13.825H0c3.091,1.314,6.605,1.152,10.405,0,6.057,5.123,6.472,11.562,2.789,18.958l4.532.094,5.617-8.52L23.611,33,34,32.784V20.4A26.7,26.7,0,0,0,31.335,8.536C29.716,5.272,27.2,3.367,24.716,1.224Z" transform="translate(332 32)" fill="#2f2e41"/>
      <ellipse id="Oval-6" data-name="Oval" cx="2" cy="2.5" rx="2" ry="2.5" transform="translate(346 51)" fill="#ffb8b8"/>
      <path id="Path-23" data-name="Path" d="M0,17.937S1.245-4.307,7.711.747,4.888,20,4.888,20Z" transform="translate(75 37)" fill="#ffb9b9"/>
      <path id="Path-24" data-name="Path" d="M5,0s14.742,16.79,6.494,17.944S0,2.127,0,2.127Z" transform="translate(44 123)" fill="#ffb9b9"/>
      <path id="Path-25" data-name="Path" d="M11.446.089h0a9.873,9.873,0,0,1,7.316,8.143l4.8,33.813L30.3,69.017s3.366,3,2.02,4.662S34,82.336,34,82.336L25.584,85s-1.01-6.993-2.693-7.326C21.412,77.382,4.853,33.626.862,23.027.311,21.565,0,20.734,0,20.734S.673-1.576,11.446.089Z" transform="translate(19 43)" fill="#575a89"/>
      <path id="Path-26" data-name="Path" d="M6.816,0,12.29,9.535c4.239,8.9.472,10.512-9.921,6.1L0,4.379Z" transform="translate(24 220)" fill="#ffb9b9"/>
      <path id="Path-27" data-name="Path" d="M11.331,3.338s2.424-3.921,3.3-3.264,4.493,3.5,4.493,3.5l4.71,4.482s15.914,1.671,5.8,7.211-15.7.946-15.7.946S-.226,16.944,0,13.019,4.8,2.883,4.8,2.883,10.555,6.717,11.331,3.338Z" transform="translate(21 230)" fill="#2f2e41"/>
      <path id="Path-28" data-name="Path" d="M0,7.512l5,58.02s.167,34.684,5.5,41.4S16,117,16,117l11-5.434s-5.667-9.055-4.5-10.442A7.6,7.6,0,0,0,24,98.139l-3-35.8L26.667,0Z" transform="translate(7 109)" fill="#2f2e41"/>
      <path id="Path-29" data-name="Path" d="M15,1.366,10.41,14,0,9.468,5.492,0,15,1.366Z" transform="translate(6 219)" fill="#ffb9b9"/>
      <path id="Path-30" data-name="Path" d="M14.011,3.431S17.758.893,18.227,1.909s2.342,5.33,2.342,5.33l2.108,6.345s12.881,8.883,1.874,9.39-13.818-6.345-13.818-6.345S-1.681,10.791.193,7.238,8.624,0,8.624,0,11.9,6.223,14.011,3.431Z" transform="translate(0 224)" fill="#2f2e41"/>
      <path id="Path-31" data-name="Path" d="M40.452,1.637,43,56.319s-23.252,49.442-25.8,50.752A6.535,6.535,0,0,0,14.015,111L0,107.4,6.37,96.92,20.385,61.885a5.75,5.75,0,0,0,2.867-4.257c.637-3.274,1.911-3.274-1.274-3.929a4.059,4.059,0,0,1-3.185-3.929L8.281,0Z" transform="translate(9 114)" fill="#2f2e41"/>
      <ellipse id="Oval-7" data-name="Oval" cx="12.89" cy="12.89" rx="12.89" ry="12.89" transform="translate(22.511 30.84) rotate(-80.783)" fill="#ffb9b9"/>
      <path id="Path-32" data-name="Path" d="M2.392,0S1.4,16.128.081,17.709s13.863,1.265,13.863,1.265-.99-13.6,0-14.863S2.392,0,2.392,0Z" transform="translate(24 20)" fill="#ffb9b9"/>
      <path id="Path-33" data-name="Path" d="M43,88S6.737,84.749,0,88c0,0,2.48-9.323,1.839-10.3-.466-.713.82-27.268.416-42.586-.229-8.644-2.2-17.085,3.525-23.5a17.834,17.834,0,0,1,6.413-4.9S11.552.533,14.761.209c0,0,12.2-1.3,16.687,2.6,1.436,1.24,2.339,5.018,2.434,8.273-2.222,11.072-1.436,23.359.6,36.106.125.81.262,1.623.4,2.437C37.049,62.267,40.32,75.3,43,88Z" transform="translate(6 33)" fill="#575a89"/>
      <path id="Path-34" data-name="Path" d="M8.481,23.646a17.264,17.264,0,0,1,3.26.451,8.253,8.253,0,0,0,8.82-6.161,4.732,4.732,0,0,1,.451-1.472,2.909,2.909,0,0,1,3.095-.943,23.865,23.865,0,0,0,3.343.814,5.118,5.118,0,0,0,4.418-2.5A8.5,8.5,0,0,0,32.953,8.7L32.1,9.6a4.327,4.327,0,0,1-.385-2.349,2.719,2.719,0,0,0-2.578.661c-.749.08-.184-1.392-.74-1.9a1.286,1.286,0,0,0-.906-.17c-1.594.015-2.883-1.205-4.139-2.188A17.576,17.576,0,0,0,15.927.256a9.76,9.76,0,0,0-5.42.263,11.578,11.578,0,0,0-3.66,2.6A22.378,22.378,0,0,0,.7,12.257a15.4,15.4,0,0,0-.074,8.92c.448,1.514,1.8,6.7,3.774,6.82C6.881,28.148,5.39,23.831,8.481,23.646Z" transform="translate(21)" fill="#2f2e41"/>
      <path id="Path-35" data-name="Path" d="M8.978,0l4.6.5s4.513,8.926,4.185,10.788-1.041.731.99,3.71,7.8,10.678,8.509,11.809,20.172-14,18.962-18.539c0,0,6.145,4.495,8.778,5.093,0,0-20.053,26.811-22.848,30.242s-5.044,2.727-8.884.692S0,21.97,0,21.97Z" transform="translate(26 43)" fill="#575a89"/>
      <path id="Path-36" data-name="Path" d="M15,18,0,1.372,3.8,0,14.625,15.5C14.742,16.329,14.871,17.165,15,18Z" transform="translate(25 66)" opacity="0.1"/>
    </g>
  </g>
</svg>
